HIERARCHY
ROOT SpineBase
{
  OFFSET 0.000000 0.000000 0.000000
  CHANNELS 6 Xposition Yposition Zposition Zrotation Xrotation Yrotation
  JOINT SpineMid
  {
    OFFSET 0.000000 29.757582 0.000000
    CHANNELS 3 Zrotation Xrotation Yrotation
    JOINT SpineShoulder
    {
      OFFSET -0.237799 22.058233 -0.678830
      CHANNELS 3 Zrotation Xrotation Yrotation
      JOINT Neck
      {
        OFFSET -0.155346 7.280451 -0.511834
        CHANNELS 3 Zrotation Xrotation Yrotation
        JOINT Head
        {
          OFFSET -0.593177 14.779107 -2.958549
          CHANNELS 3 Zrotation Xrotation Yrotation
          End Site
          {
            OFFSET 0 0 0
          }
        }
      }
      JOINT ShoulderLeft
      {
        OFFSET -17.676839 -2.030344 3.578050
        CHANNELS 3 Zrotation Xrotation Yrotation
        JOINT ElbowLeft
        {
          OFFSET -4.201059 -25.607098 -1.804924
          CHANNELS 3 Zrotation Xrotation Yrotation
          JOINT WristLeft
          {
            OFFSET -0.002050 -21.484808 -6.278104
            CHANNELS 3 Zrotation Xrotation Yrotation
            JOINT HandLeft
            {
              OFFSET 1.278821 -3.321677 -1.249448
              CHANNELS 3 Zrotation Xrotation Yrotation
              JOINT HandTipLeft
              {
                OFFSET -0.793680 -6.644344 -2.858763
                CHANNELS 3 Zrotation Xrotation Yrotation
                End Site
                {
                  OFFSET 0 0 0
                }
              }
              JOINT ThumbLeft
              {
                OFFSET 2.729673 1.206251 -2.892404
                CHANNELS 3 Zrotation Xrotation Yrotation
                End Site
                {
                  OFFSET 0 0 0
                }
              }
            }
          }
        }
      }
      JOINT ShoulderRight
      {
        OFFSET 16.952667 -3.097871 -3.024605
        CHANNELS 3 Zrotation Xrotation Yrotation
        JOINT ElbowRight
        {
          OFFSET 4.984462 -23.680184 -0.797587
          CHANNELS 3 Zrotation Xrotation Yrotation
          JOINT WristRight
          {
            OFFSET -1.377058 -21.476475 -6.190796
            CHANNELS 3 Zrotation Xrotation Yrotation
            JOINT HandRight
            {
              OFFSET -2.621892 -5.872749 -1.268358
              CHANNELS 3 Zrotation Xrotation Yrotation
              JOINT HandTipRight
              {
                OFFSET -0.199339 -4.105067 -1.969195
                CHANNELS 3 Zrotation Xrotation Yrotation
                End Site
                {
                  OFFSET 0 0 0
                }
              }
              JOINT ThumbRight
              {
                OFFSET -2.732453 0.611108 0.344154
                CHANNELS 3 Zrotation Xrotation Yrotation
                End Site
                {
                  OFFSET 0 0 0
                }
              }
            }
          }
        }
      }
    }
  }
  JOINT HipLeft
  {
    OFFSET -8.724772 0.852324 -2.115195
    CHANNELS 3 Zrotation Xrotation Yrotation
    JOINT KneeLeft
    {
      OFFSET -3.190417 -29.503130 -6.592212
      CHANNELS 3 Zrotation Xrotation Yrotation
      JOINT AnkleLeft
      {
        OFFSET -25.536841 -21.789792 2.623062
        CHANNELS 3 Zrotation Xrotation Yrotation
        JOINT FootLeft
        {
          OFFSET 8.660370 10.174025 -4.188670
          CHANNELS 3 Zrotation Xrotation Yrotation
          End Site
          {
            OFFSET 0 0 0
          }
        }
      }
    }
  }
  JOINT HipRight
  {
    OFFSET 7.106590 -0.171490 -4.945969
    CHANNELS 3 Zrotation Xrotation Yrotation
    JOINT KneeRight
    {
      OFFSET 3.413066 -29.059662 0.212189
      CHANNELS 3 Zrotation Xrotation Yrotation
      JOINT AnkleRight
      {
        OFFSET 2.015487 -33.764724 14.877808
        CHANNELS 3 Zrotation Xrotation Yrotation
        JOINT FootRight
        {
          OFFSET -2.616436 -4.676656 -12.561813
          CHANNELS 3 Zrotation Xrotation Yrotation
          End Site
          {
            OFFSET 0 0 0
          }
        }
      }
    }
  }
}
MOTION
Frames: 9
Frame Time: 0.033333
103.191832 68.570146 429.144820 1.671758 -3.723626 2.516671 -0.050130 -0.028137 -2.450919 -0.094032 -0.085741 0.020148 -7.141789 8.331574 -0.319844 0.000000 0.000000 0.000000 -13.410781 -5.575629 2.210737 29.496470 11.496198 -11.198806 -17.497770 -11.638278 2.087381 17.991503 -2.989227 -4.998912 0.000000 0.000000 0.000000 0.000000 0.000000 0.000000 -3.225020 -3.347107 -1.431678 -4.646754 11.336798 3.788724 -31.906150 -23.624581 5.642442 34.130335 25.175779 -14.420780 0.000000 0.000000 0.000000 0.000000 0.000000 0.000000 -13.290030 15.033718 0.976288 52.689170 -3.731794 2.771830 -11.233459 6.985736 1.281510 0.000000 0.000000 0.000000 7.078452 12.304510 -2.516863 -10.556680 -15.733501 -3.481061 8.839998 -8.491337 -14.263976 0.000000 0.000000 0.000000
104.816847 69.070107 429.918096 1.197268 -3.060066 0.218881 -0.473049 0.321545 -0.183572 -0.041487 -0.061743 -0.003256 -7.201418 8.283012 -0.426821 0.000000 0.000000 0.000000 -13.148467 -4.156283 1.880847 29.007379 8.975624 -9.550770 -18.429245 -14.076118 1.192057 15.397294 5.553914 -4.435846 0.000000 0.000000 0.000000 0.000000 0.000000 0.000000 -5.274978 -2.821574 -1.011744 -1.972824 11.218634 3.197639 -22.074702 -28.450227 6.208675 23.254768 29.916753 -12.324163 0.000000 0.000000 0.000000 0.000000 0.000000 0.000000 -13.543839 13.989393 3.160996 51.713156 -3.927480 2.483164 -11.495557 6.539563 1.382631 0.000000 0.000000 0.000000 7.123879 10.957404 -0.182029 -6.790798 -16.298379 -0.983462 5.537497 -10.729649 -17.451070 0.000000 0.000000 0.000000
106.683751 69.803310 430.723764 0.383288 -1.731002 -0.755873 -0.725608 0.524484 0.750834 0.042475 -0.082030 -0.025286 -6.599199 7.349810 -0.577878 0.000000 0.000000 0.000000 -12.550646 -3.357121 1.457644 29.350172 6.884310 -8.424935 -21.262115 -14.036203 1.877182 18.566931 10.884507 -7.090137 0.000000 0.000000 0.000000 0.000000 0.000000 0.000000 -7.413668 -2.026778 -0.447915 0.868892 10.048260 2.487254 -11.758654 -29.076685 6.835766 8.337975 29.815501 -5.284535 0.000000 0.000000 0.000000 0.000000 0.000000 0.000000 -14.183210 13.412661 4.233511 53.268545 -4.965745 4.171431 -12.045936 6.423910 1.201379 0.000000 0.000000 0.000000 7.762190 7.764150 0.846524 -2.447484 -15.511966 1.845870 1.908689 -17.708629 -22.475398 0.000000 0.000000 0.000000
108.741251 70.684503 431.595621 -0.698832 0.070610 -1.148633 -1.008240 0.739792 1.116461 0.178893 -0.123546 -0.048569 -6.212327 5.850171 -0.848694 0.000000 0.000000 0.000000 -12.171173 -3.511193 1.004336 29.922449 5.672392 -7.523410 -23.546330 -8.817045 4.841257 23.829882 9.628651 -11.182700 0.000000 0.000000 0.000000 0.000000 0.000000 0.000000 -8.259295 -1.014299 0.224336 0.635650 8.065778 2.457084 -0.245828 -26.327291 5.930340 -7.596206 23.184196 3.305738 0.000000 0.000000 0.000000 0.000000 0.000000 0.000000 -13.649697 12.367661 4.368454 53.393678 -6.132261 6.143427 -11.476822 6.389646 1.208152 0.000000 0.000000 0.000000 8.356011 3.220160 1.359326 1.990025 -13.105795 4.259573 -2.179123 -13.715049 -23.764057 0.000000 0.000000 0.000000
110.942833 71.485896 432.461018 -1.903025 2.004085 -0.477070 -1.137421 0.859509 0.451146 0.181177 -0.113609 -0.077775 -5.525637 4.212877 -1.100303 0.000000 0.000000 0.000000 -13.771575 -3.665067 0.583107 32.920374 4.645066 -6.844793 -21.563665 -4.706179 6.093078 24.442158 9.099401 -12.962339 0.000000 0.000000 0.000000 0.000000 0.000000 0.000000 -8.312776 -0.053748 0.903722 -0.220159 5.941982 2.296553 7.457677 -20.916245 3.314104 -19.132643 11.671481 9.453331 0.000000 0.000000 0.000000 0.000000 0.000000 0.000000 -12.476130 11.555120 3.374462 52.374151 -7.466055 7.844015 -10.353335 6.241764 1.353212 0.000000 0.000000 0.000000 9.310548 -2.051993 0.840323 5.045564 -9.803395 5.672796 -5.490558 -1.201381 -21.322332 0.000000 0.000000 0.000000
113.289622 72.022469 433.411450 -3.384249 4.013143 0.346013 -1.145455 0.888389 -0.319530 0.277574 -0.171547 -0.106638 -4.653241 3.427189 -1.208562 0.000000 0.000000 0.000000 -17.652194 -4.978538 0.089401 39.149941 6.279976 -7.437059 -17.808407 -4.141796 5.581512 20.745428 10.910358 -13.029947 0.000000 0.000000 0.000000 0.000000 0.000000 0.000000 -7.090075 0.051409 1.330808 -2.458652 5.709500 2.406957 8.517084 -17.681931 0.807052 -21.786401 6.681532 11.732523 0.000000 0.000000 0.000000 0.000000 0.000000 0.000000 -10.881525 10.743869 2.260915 50.461298 -8.699182 8.528374 -9.446620 5.920173 1.463093 0.000000 0.000000 0.000000 10.670618 -6.894051 0.301876 6.243168 -6.724234 6.063402 -9.717342 19.712039 -13.731394 0.000000 0.000000 0.000000
115.412037 72.257633 434.469528 -5.329863 6.090731 0.984084 -0.987884 0.784461 -0.831506 0.324153 -0.202609 -0.151011 -3.396862 2.167106 -1.295641 0.000000 0.000000 0.000000 -23.877691 -8.113648 -0.901163 48.204044 9.696803 -9.495311 -10.057821 -3.159037 4.409137 12.222688 8.721384 -10.947884 0.000000 0.000000 0.000000 0.000000 0.000000 0.000000 -3.036531 -0.110313 1.810418 -9.504567 7.147302 3.258283 9.864812 -19.716031 -0.451538 -20.701509 6.646812 12.280790 0.000000 0.000000 0.000000 0.000000 0.000000 0.000000 -8.112154 9.886873 1.268488 47.068727 -9.865114 8.421372 -8.751455 5.592475 1.322231 0.000000 0.000000 0.000000 13.009568 -10.674535 0.246316 5.879940 -4.448383 5.988988 -17.518977 36.147307 -1.349832 0.000000 0.000000 0.000000
117.385227 72.000133 435.534157 -7.021028 7.782920 1.765202 -1.081136 0.776952 -1.466155 0.191860 -0.132020 -0.215903 -2.495133 0.087082 -1.575779 0.000000 0.000000 0.000000 -29.021307 -11.327581 -2.361778 55.416336 13.230989 -11.556200 -4.102484 -1.063882 4.237244 6.063218 3.630390 -9.577642 0.000000 0.000000 0.000000 0.000000 0.000000 0.000000 1.338249 -0.365374 2.393926 -16.501078 8.466188 4.075666 9.649293 -20.746588 -2.036666 -16.739190 8.080143 11.931690 0.000000 0.000000 0.000000 0.000000 0.000000 0.000000 -5.811632 9.763395 0.358313 43.799713 -10.995936 7.617484 -7.279004 6.271356 0.397926 0.000000 0.000000 0.000000 15.351330 -13.052045 0.207967 4.298211 -3.115175 5.602391 -30.570987 52.629662 14.789384 0.000000 0.000000 0.000000
119.479353 70.882833 436.550503 -8.904346 9.513493 2.896126 -0.618675 0.630581 -2.340419 0.252172 -0.092530 -0.240159 -2.270824 -3.288538 -2.169225 0.000000 0.000000 0.000000 -33.312881 -15.389229 -4.406263 62.517113 17.690306 -15.125620 -2.140863 -0.376170 4.893853 4.399121 -4.304688 -8.668127 0.000000 0.000000 0.000000 0.000000 0.000000 0.000000 6.024690 -1.817552 2.753418 -24.139717 12.349922 5.823007 7.773680 -23.120270 -3.833393 -7.661447 9.406555 9.117308 0.000000 0.000000 0.000000 0.000000 0.000000 0.000000 -4.160290 11.139432 -0.560482 42.087371 -13.072645 7.496246 -8.295278 7.912130 -2.720348 0.000000 0.000000 0.000000 18.379134 -14.940296 0.184564 1.461211 -2.576973 4.994670 -60.620150 63.092231 48.765368 0.000000 0.000000 0.000000
